<svg width="109" height="30" viewBox="0 0 109 30" fill="none" xmlns="http://www.w3.org/2000/svg">
<g clip-path="url(#clip0)">
<path d="M45.3949 5.88074C45.4586 5.87708 45.5224 5.87987 45.5855 5.88908C45.6582 5.8984 45.7255 5.93247 45.7761 5.98557C45.829 6.0348 45.8631 6.10093 45.8726 6.17258C45.883 6.24154 45.8862 6.31141 45.8821 6.38104V14.4656H46.5968V6.44656C46.5961 6.34218 46.589 6.23795 46.5754 6.13447C46.5638 6.02649 46.5386 5.92042 46.5003 5.8188C46.4562 5.70997 46.3924 5.61022 46.3121 5.52458C46.2413 5.44827 46.1563 5.38638 46.062 5.34233C45.9777 5.30332 45.8882 5.27684 45.7963 5.26371C45.7099 5.25227 45.6227 5.24709 45.5355 5.24823H40.3514C40.265 5.24699 40.1786 5.25217 40.0929 5.26371C40.0001 5.27628 39.9098 5.30278 39.8249 5.34233C39.7304 5.38607 39.6454 5.448 39.5748 5.52458C39.4939 5.60982 39.4301 5.70967 39.3866 5.8188C39.3469 5.92014 39.3209 6.02628 39.3091 6.13447C39.2983 6.23813 39.294 6.34236 39.296 6.44656V14.4656H40.0107V6.38104C40.008 6.31144 40.0108 6.24174 40.0191 6.17258C40.0301 6.10141 40.0639 6.03576 40.1156 5.98557C40.1667 5.93262 40.2343 5.89861 40.3073 5.88908C40.3704 5.87985 40.4343 5.87705 40.4979 5.88074H45.3949Z" fill="white"/>
<path d="M47.1197 14.4659H47.8856L51.3591 6.07517C51.3746 6.03348 51.3925 5.9906 51.4091 5.94414C51.4262 5.8988 51.4535 5.85803 51.489 5.82503C51.5309 5.79208 51.5827 5.77418 51.6361 5.77418C51.6894 5.77418 51.7412 5.79208 51.7832 5.82503C51.8179 5.85842 51.8447 5.89911 51.8618 5.94414C51.8797 5.9906 51.8975 6.03348 51.9118 6.07517L55.3901 14.4659H56.1536L52.5706 5.94653C52.4994 5.76177 52.4037 5.58747 52.2859 5.42836C52.2074 5.32358 52.1026 5.2414 51.9821 5.19012C51.7563 5.12022 51.5146 5.12022 51.2888 5.19012C51.1689 5.24177 51.0646 5.3239 50.9863 5.42836C50.868 5.58718 50.7722 5.76154 50.7016 5.94653L47.1197 14.4659Z" fill="white"/>
<path d="M56.1525 14.4656H56.916L58.0345 11.7795H63.3806L64.5003 14.4656H65.2639L61.7344 6.11778C61.6683 5.95264 61.5886 5.79327 61.4961 5.6413C61.4128 5.50194 61.3027 5.38048 61.1721 5.28395C61.0365 5.18692 60.8731 5.13636 60.7064 5.13981C60.5406 5.13674 60.3781 5.18592 60.2418 5.28037C60.1101 5.37603 59.9995 5.49765 59.9166 5.63773C59.8237 5.78946 59.744 5.94887 59.6784 6.1142L56.1525 14.4656ZM60.3216 6.32743C60.3478 6.26191 60.3788 6.18925 60.4133 6.10825C60.4468 6.03252 60.4896 5.96129 60.5408 5.89622C60.5569 5.86717 60.5804 5.84296 60.609 5.8261C60.6376 5.80924 60.6702 5.80035 60.7034 5.80035C60.7366 5.80035 60.7692 5.80924 60.7978 5.8261C60.8264 5.84296 60.8499 5.86717 60.866 5.89622C60.9163 5.96163 60.9587 6.03281 60.9923 6.10825C61.028 6.18925 61.059 6.26191 61.0852 6.32743L63.0995 11.147H58.3109L60.3264 6.32743H60.3216Z" fill="white"/>
<path d="M73.0196 14.4658V13.8333H69.4461C69.1089 13.8354 68.7728 13.7954 68.4455 13.7142C68.1888 13.6527 67.9416 13.5569 67.7105 13.4295C67.5273 13.329 67.3569 13.2066 67.2031 13.065C67.0876 12.9563 66.9831 12.8366 66.891 12.7076C66.7109 12.4541 66.5745 12.1722 66.4872 11.8738C66.4034 11.5749 66.3492 11.2684 66.3252 10.9589C66.299 10.6409 66.2883 10.3228 66.2906 10.006C66.2906 9.65936 66.299 9.30439 66.3276 8.93988C66.3545 8.5802 66.418 8.22419 66.517 7.87735C66.611 7.54301 66.7665 7.22913 66.9756 6.95179C67.1536 6.72095 67.3709 6.52335 67.6176 6.36811C67.8428 6.22867 68.0861 6.12085 68.3407 6.04769C68.5723 5.98092 68.8095 5.93547 69.0494 5.91189C69.2474 5.89306 69.4462 5.88432 69.645 5.88568H72.8707V5.2484H69.3448C68.9775 5.24581 68.6113 5.28943 68.2549 5.37824C67.9696 5.44745 67.6937 5.55063 67.433 5.68557C67.2292 5.78833 67.0364 5.91166 66.8576 6.05364C66.7344 6.14963 66.6185 6.25475 66.511 6.36811C66.2932 6.6033 66.1139 6.87145 65.9797 7.16263C65.8464 7.45223 65.7461 7.7559 65.6808 8.06794C65.6146 8.38482 65.5716 8.7061 65.5521 9.02922C65.5319 9.35442 65.5211 9.67484 65.5235 9.98217C65.5186 10.4527 65.5485 10.9229 65.6129 11.389C65.6679 11.7793 65.7757 12.1604 65.9333 12.5218C66.0827 12.8558 66.2918 13.1598 66.5503 13.4187C66.6717 13.5406 66.8023 13.6529 66.941 13.7547C67.1215 13.8857 67.3141 13.999 67.5164 14.0929C67.7665 14.2073 68.028 14.2947 68.2966 14.3538C68.6268 14.4258 68.964 14.4613 69.302 14.4598L73.0196 14.4658Z" fill="white"/>
<path d="M77.8511 14.4657V5.88081H81.7094V5.24829H73.2817V5.88081H77.14V14.4657H77.8511Z" fill="white"/>
<path d="M90.1096 14.4658V6.28833C90.1114 6.21797 90.109 6.14756 90.1024 6.07749C90.097 5.97872 90.0826 5.88064 90.0596 5.78445C90.0341 5.67688 89.9919 5.57397 89.9345 5.47951C89.8791 5.38124 89.799 5.29912 89.7022 5.24127C89.5848 5.17436 89.4513 5.14098 89.3163 5.14479C89.1494 5.1392 88.9844 5.18047 88.8398 5.26391C88.7041 5.3537 88.5872 5.469 88.4955 5.60339C88.3919 5.7511 88.2823 5.92025 88.162 6.1156L83.4878 13.5546C83.4652 13.5879 83.4437 13.6225 83.4199 13.6641C83.3973 13.702 83.3709 13.7375 83.3413 13.7702C83.3138 13.7984 83.2769 13.8153 83.2376 13.8178C83.2124 13.82 83.1871 13.8154 83.1643 13.8045C83.1414 13.7936 83.1219 13.7768 83.1078 13.7559C83.0857 13.7095 83.0755 13.6583 83.078 13.607C83.078 13.5474 83.078 13.4879 83.078 13.4223V5.24842H82.3633V13.5045C82.3628 13.61 82.3688 13.7154 82.3812 13.8202C82.395 13.9433 82.4267 14.0637 82.4753 14.1775C82.5267 14.2921 82.6092 14.3899 82.7135 14.4599C82.8421 14.5427 82.993 14.5843 83.1459 14.579C83.308 14.5825 83.4679 14.5413 83.6081 14.4599C83.732 14.3835 83.8396 14.2835 83.9249 14.1656C84.0143 14.0465 84.1001 13.9131 84.1858 13.7749L88.9387 6.28237C88.9696 6.22758 89.003 6.1704 89.0399 6.11322C89.0715 6.05956 89.1091 6.00962 89.1519 5.96432C89.1663 5.94614 89.1843 5.93115 89.2048 5.92028C89.2253 5.90942 89.2479 5.90292 89.271 5.90119C89.2896 5.90077 89.308 5.90543 89.3241 5.91466C89.3403 5.9239 89.3536 5.93736 89.3627 5.9536C89.3834 5.99004 89.3953 6.03085 89.3973 6.07272C89.4005 6.1048 89.4005 6.13713 89.3973 6.16921V14.4777L90.1096 14.4658Z" fill="white"/>
<path d="M91.9595 14.4657H92.6742V5.24829H91.9595V14.4657ZM99.6748 14.4657L94.573 10.5419C94.4741 10.4669 94.3717 10.3859 94.2656 10.3037C94.1684 10.2229 94.0801 10.1318 94.0024 10.0321C93.9327 9.95133 93.8909 9.85023 93.8833 9.74382C93.887 9.6712 93.91 9.60088 93.95 9.54013C93.9957 9.47217 94.0493 9.4098 94.1096 9.35431C94.1739 9.29475 94.2371 9.24233 94.3002 9.1935L94.4634 9.07438L99.1769 5.25544H98.1537L93.8356 8.72417C93.7267 8.81055 93.6248 8.90534 93.5307 9.00767C93.4322 9.11157 93.3481 9.22814 93.2805 9.35431C93.2167 9.46758 93.1815 9.59477 93.1781 9.72476C93.182 9.85997 93.2171 9.99245 93.2805 10.1119C93.3563 10.2567 93.4508 10.3909 93.5617 10.5109C93.6903 10.6525 93.8318 10.7817 93.9845 10.8969L98.6063 14.4704L99.6748 14.4657Z" fill="white"/>
<path d="M99.4056 14.4656H100.169L101.288 11.7795H106.634L107.753 14.4656H108.517L104.989 6.11778C104.922 5.95309 104.842 5.7938 104.75 5.6413C104.666 5.50214 104.556 5.38075 104.425 5.28395C104.29 5.18692 104.126 5.13636 103.96 5.13981C103.794 5.13706 103.631 5.18621 103.495 5.28037C103.364 5.3764 103.253 5.49794 103.17 5.63773C103.077 5.78972 102.998 5.94909 102.932 6.1142L99.4032 14.462L99.4056 14.4656ZM103.575 6.32743C103.601 6.26191 103.632 6.18925 103.666 6.10825C103.701 6.033 103.744 5.96187 103.794 5.89622C103.81 5.86717 103.834 5.84296 103.862 5.8261C103.891 5.80924 103.923 5.80035 103.957 5.80035C103.99 5.80035 104.022 5.80924 104.051 5.8261C104.08 5.84296 104.103 5.86717 104.119 5.89622C104.169 5.96187 104.212 6.033 104.247 6.10825C104.281 6.18925 104.312 6.26191 104.338 6.32743L106.353 11.147H101.565L103.58 6.32743H103.575Z" fill="white"/>
<path d="M43.0495 18.8899C42.8112 18.8899 42.5635 18.8899 42.2954 18.9102C42.0234 18.9267 41.753 18.9641 41.4866 19.0221C41.2103 19.0804 40.942 19.1716 40.6873 19.2937C40.4233 19.4238 40.182 19.5955 39.9726 19.8024C39.7445 20.0342 39.5565 20.3022 39.4163 20.5957C39.2828 20.8801 39.1828 21.1791 39.1185 21.4867C39.0581 21.7826 39.0183 22.0823 38.9994 22.3837C38.9827 22.6759 38.9756 22.9447 38.978 23.1901C38.978 23.4367 38.978 23.7047 38.9994 23.9977C39.0185 24.2983 39.0583 24.5972 39.1185 24.8923C39.1826 25.2007 39.2826 25.5005 39.4163 25.7857C39.5566 26.0787 39.7446 26.3464 39.9726 26.5778C40.1811 26.7851 40.4226 26.9562 40.6873 27.0841C40.9416 27.2078 41.21 27.3002 41.4866 27.3592C41.7531 27.4159 42.0235 27.4525 42.2954 27.4688C42.5635 27.4855 42.8136 27.4926 43.0495 27.4915C43.2853 27.4903 43.5378 27.4915 43.8047 27.4688C44.0774 27.4522 44.3485 27.4156 44.6159 27.3592C44.8915 27.2997 45.1591 27.2073 45.4128 27.0841C45.6777 26.9566 45.9193 26.7855 46.1275 26.5778C46.3563 26.3471 46.5444 26.0792 46.6838 25.7857C46.8184 25.5008 46.9188 25.2009 46.9828 24.8923C47.043 24.5972 47.0828 24.2983 47.1019 23.9977C47.1174 23.7047 47.1257 23.4367 47.1233 23.1901C47.1209 22.9435 47.1233 22.6755 47.1019 22.3837C47.083 22.0823 47.0432 21.7826 46.9828 21.4867C46.9186 21.1789 46.8183 20.8798 46.6838 20.5957C46.5444 20.3018 46.3563 20.0335 46.1275 19.8024C45.9185 19.5951 45.6771 19.4233 45.4128 19.2937C45.1588 19.1721 44.8913 19.0809 44.6159 19.0221C44.3487 18.9645 44.0775 18.927 43.8047 18.9102C43.5378 18.8935 43.2865 18.8875 43.0495 18.8899ZM39.6736 23.1901C39.6736 22.9459 39.6736 22.6934 39.6879 22.4337C39.7 22.1737 39.7283 21.9147 39.7725 21.6582C39.8173 21.4049 39.8896 21.1573 39.9881 20.9197C40.0874 20.6831 40.2246 20.4642 40.3943 20.2717C40.5662 20.0798 40.7722 19.9214 41.0018 19.8047C41.2198 19.6952 41.4513 19.6151 41.6903 19.5665C41.9231 19.5188 42.1593 19.4893 42.3967 19.4784C42.629 19.4688 42.847 19.4641 43.0495 19.4664C43.252 19.4688 43.47 19.4664 43.7022 19.4784C43.94 19.4893 44.1766 19.5188 44.4098 19.5665C44.6491 19.6153 44.881 19.6954 45.0995 19.8047C45.3282 19.9218 45.5334 20.0801 45.7046 20.2717C45.8751 20.4636 46.0124 20.6826 46.1108 20.9197C46.2097 21.1572 46.2824 21.4049 46.3276 21.6582C46.3715 21.9147 46.3993 22.1737 46.411 22.4337C46.4229 22.6934 46.4277 22.9455 46.4253 23.1901C46.4229 23.4347 46.4181 23.6872 46.411 23.9477C46.3993 24.2073 46.3715 24.4658 46.3276 24.722C46.2824 24.9753 46.2097 25.2229 46.1108 25.4605C46.0124 25.6979 45.8751 25.9174 45.7046 26.1097C45.5327 26.2998 45.3276 26.4572 45.0995 26.5742C44.8815 26.6846 44.6494 26.7647 44.4098 26.8125C44.1766 26.8606 43.9401 26.8905 43.7022 26.9018C43.47 26.9113 43.2543 26.9149 43.0495 26.9137C42.8446 26.9125 42.629 26.9137 42.3967 26.9018C42.1593 26.8905 41.9231 26.8606 41.6903 26.8125C41.451 26.7649 41.2194 26.6847 41.0018 26.5742C40.7728 26.4576 40.5669 26.3002 40.3943 26.1097C40.2246 25.9168 40.0874 25.6975 39.9881 25.4605C39.8896 25.2229 39.8173 24.9752 39.7725 24.722C39.7283 24.4659 39.7 24.2073 39.6879 23.9477C39.6784 23.6868 39.6724 23.4343 39.6736 23.1901Z" fill="white"/>
<path d="M48.5634 27.3973H49.2126V18.9875H48.5634V27.3973ZM55.6033 27.3973L50.9577 23.8238C50.8684 23.7559 50.7743 23.6808 50.6778 23.601C50.5895 23.5274 50.5096 23.4443 50.4395 23.3532C50.3782 23.2785 50.342 23.1864 50.3359 23.09C50.339 23.0239 50.3596 22.9598 50.3955 22.9042C50.4378 22.8421 50.487 22.785 50.542 22.7338C50.6003 22.6802 50.6611 22.6326 50.7159 22.5885L50.8648 22.4777L55.165 18.9935H54.2275L50.2811 22.1561C50.1816 22.2345 50.0888 22.321 50.0036 22.4146C49.9141 22.5096 49.8372 22.6157 49.7748 22.7303C49.7172 22.834 49.685 22.9499 49.6807 23.0686C49.6842 23.1933 49.7164 23.3156 49.7748 23.4259C49.8435 23.5583 49.9297 23.6809 50.031 23.7904C50.1473 23.9209 50.2753 24.0405 50.4133 24.1478L54.6301 27.3973H55.6033Z" fill="white"/>
<path d="M59.4402 18.8899C59.2019 18.8899 58.9542 18.8899 58.6862 18.9101C58.4141 18.9267 58.1437 18.9641 57.8773 19.0221C57.601 19.0804 57.3327 19.1716 57.0781 19.2937C56.814 19.4238 56.5727 19.5955 56.3633 19.8023C56.1353 20.0341 55.9473 20.3022 55.8071 20.5957C55.6735 20.8801 55.5735 21.1791 55.5093 21.4867C55.4488 21.7825 55.409 22.0823 55.3901 22.3836C55.3735 22.6759 55.3659 22.9447 55.3675 23.1901C55.3675 23.4366 55.3735 23.7047 55.3901 23.9977C55.4092 24.2983 55.449 24.5972 55.5093 24.8923C55.5734 25.2007 55.6733 25.5005 55.8071 25.7857C55.9473 26.0787 56.1353 26.3464 56.3633 26.5778C56.5718 26.7851 56.8133 26.9562 57.0781 27.0841C57.3324 27.2078 57.6007 27.3002 57.8773 27.3592C58.1438 27.4159 58.4142 27.4525 58.6862 27.4688C58.9542 27.4855 59.2043 27.4926 59.4402 27.4914C59.676 27.4902 59.9286 27.4914 60.1954 27.4688C60.4681 27.4522 60.7392 27.4155 61.0066 27.3592C61.2823 27.2997 61.5498 27.2073 61.8035 27.0841C62.0684 26.9566 62.31 26.7854 62.5182 26.5778C62.747 26.3471 62.9351 26.0792 63.0745 25.7857C63.2081 25.5018 63.3076 25.2031 63.3711 24.8958C63.4308 24.6007 63.4706 24.3018 63.4902 24.0013C63.5057 23.7082 63.514 23.4402 63.5116 23.1936C63.5093 22.9471 63.5116 22.6791 63.4902 22.3872C63.4707 22.0859 63.4309 21.7862 63.3711 21.4902C63.3069 21.1825 63.2066 20.8834 63.0721 20.5992C62.9327 20.3053 62.7447 20.0371 62.5158 19.8059C62.3068 19.5987 62.0654 19.4269 61.8011 19.2973C61.5471 19.1757 61.2796 19.0845 61.0042 19.0257C60.737 18.968 60.4658 18.9306 60.193 18.9137C59.9262 18.897 59.6748 18.8911 59.4378 18.8935L59.4402 18.8899ZM56.0644 23.1901C56.0644 22.9459 56.0644 22.6933 56.0787 22.4337C56.0907 22.1737 56.119 21.9147 56.1632 21.6582C56.208 21.4049 56.2803 21.1573 56.3788 20.9197C56.4781 20.683 56.6153 20.4642 56.785 20.2717C56.9566 20.0795 57.1627 19.9211 57.3925 19.8047C57.6105 19.6952 57.842 19.6151 58.081 19.5665C58.3138 19.5187 58.55 19.4893 58.7874 19.4783C59.0197 19.4688 59.2377 19.464 59.4402 19.4664C59.6427 19.4688 59.8607 19.4664 60.0929 19.4783C60.3307 19.4893 60.5673 19.5188 60.8005 19.5665C61.0399 19.6153 61.2717 19.6954 61.4902 19.8047C61.7189 19.9218 61.9241 20.0801 62.0953 20.2717C62.2658 20.4636 62.4031 20.6826 62.5015 20.9197C62.6004 21.1572 62.6731 21.4049 62.7183 21.6582C62.7622 21.9147 62.79 22.1737 62.8017 22.4337C62.8136 22.6933 62.8184 22.9455 62.816 23.1901C62.8136 23.4347 62.8088 23.6872 62.8017 23.9477C62.79 24.2072 62.7622 24.4658 62.7183 24.7219C62.6731 24.9753 62.6004 25.2229 62.5015 25.4605C62.4031 25.6979 62.2658 25.9173 62.0953 26.1097C61.9234 26.2998 61.7183 26.4572 61.4902 26.5742C61.2722 26.6845 61.0401 26.7647 60.8005 26.8125C60.5673 26.8605 60.3308 26.8904 60.0929 26.9018C59.8607 26.9113 59.6451 26.9149 59.4402 26.9137C59.2353 26.9125 59.0197 26.9137 58.7874 26.9018C58.55 26.8905 58.3138 26.8606 58.081 26.8125C57.8417 26.7649 57.6101 26.6847 57.3925 26.5742C57.1633 26.4579 56.9573 26.3004 56.785 26.1097C56.6153 25.9167 56.4781 25.6975 56.3788 25.4605C56.2803 25.2229 56.208 24.9752 56.1632 24.7219C56.119 24.4659 56.0907 24.2073 56.0787 23.9477C56.0691 23.6868 56.0632 23.4343 56.0644 23.1901Z" fill="white"/>
<path d="M71.701 18.9851H71.0518V22.8303H65.5986V18.9851H64.9494V27.3949H65.5986V23.4068H71.0518V27.3949H71.701V18.9851Z" fill="white"/>
<path d="M0 0H19.6724C22.4148 0.0047241 25.0434 1.0962 26.9825 3.03533C28.9217 4.97445 30.0131 7.60311 30.0179 10.3454V22.7183H22.7362V10.3454C22.7315 9.53445 22.4071 8.75802 21.8336 8.18467C21.26 7.61131 20.4834 7.28728 19.6724 7.28291H0V0Z" fill="white"/>
<path d="M30.0179 30.0001H10.3014C7.7254 29.9943 5.24377 29.0301 3.33959 27.2952C1.43541 25.5604 0.244958 23.179 0 20.6147L0 7.28296H7.23764V19.6546C7.24264 20.4656 7.56703 21.242 8.14051 21.8155C8.71399 22.3889 9.49036 22.7133 10.3014 22.7183H30.0179V30.0001Z" fill="#33C5F3"/>
</g>
<defs>
<clipPath id="clip0">
<rect width="108.517" height="30" fill="white"/>
</clipPath>
</defs>
</svg>
